#!OML:ASF E:\motion texture\Top Level 1\Subject 1\Session 1\male.ASF
:FULLY-SPECIFIED
:DEGREES
230
root 14.4845 17.6029 4.06608 128.808 -81.3008 -123.584
lowerback -2.99833 4.522 6.80741
upperback -1.06357 5.70798 2.97556
thorax 0.938948 2.81226 -0.490836
lowerneck -17.8425 -5.27772 -7.4933
upperneck 0.0226523 -6.2463 10.6202
head 3.43536 -2.69807 3.97683
rclavicle -3.21286e-014 -5.68524e-014
rhumerus 5.04782 32.6786 -91.2173
rradius 59.9514
rwrist -15.1485
rhand -21.1273 -29.8203
rfingers 7.12502
rthumb 5.25145 -419.735
lclavicle -3.21286e-014 -5.68524e-014
lhumerus -11.4639 -18.2104 105.742
lradius 62.6579
lwrist 29.8183
lhand -15.1002 48.1163
lfingers 7.12502
lthumb 11.0681 77.8044
rfemur -5.52151 0.787327 28.3421
rtibia 40.3132
rfoot -9.13837 -9.95557
rtoes -5.71429
lfemur -29.037 -2.22425 -8.21694
ltibia 18.649
lfoot -2.58441 7.46314
ltoes -6.16596
231
root 14.3205 17.6022 4.08413 130.404 -81.4589 -125.241
lowerback -2.9309 4.39812 6.48487
upperback -0.984285 5.56122 2.90915
thorax 0.950896 2.74367 -0.393607
lowerneck -17.9397 -5.16572 -7.43002
upperneck 0.00198002 -6.10618 10.6066
head 3.42891 -2.62858 3.97458
rclavicle 5.92254e-014 6.75868e-015
rhumerus 2.9553 34.1403 -92.0619
rradius 60.2418
rwrist -13.2918
rhand -22.0189 -30.1197
rfingers 7.12502
rthumb 4.39049 -420.054
lclavicle 5.92254e-014 6.75868e-015
lhumerus -12.6614 -18.0401 106.218
lradius 62.5706
lwrist 31.085
lhand -15.0115 48.8746
lfingers 7.12502
lthumb 11.1537 78.5582
rfemur -6.08082 0.675298 27.8674
rtibia 41.7827
rfoot -8.23984 -10.0584
rtoes -5.5963
lfemur -28.7194 -2.22563 -8.75732
ltibia 19.0584
lfoot -2.44709 7.20855
ltoes -5.55128
232
root 14.1573 17.6029 4.10229 131.933 -81.6278 -126.835
lowerback -2.85268 4.26591 6.15898
upperback -0.905983 5.40403 2.84396
thorax 0.955909 2.66941 -0.294059
lowerneck -18.0268 -5.05218 -7.36478
upperneck -0.0302753 -5.96442 10.5911
head 3.41719 -2.55892 3.97177
rclavicle -1.31695e-015 -3.18055e-015
rhumerus 0.838035 35.5265 -92.9834
rradius 60.4784
rwrist -11.4913
rhand -22.8308 -30.4508
rfingers 7.12502
rthumb 3.60648 -420.4
lclavicle -1.31695e-015 -3.18055e-015
lhumerus -13.839 -17.8856 106.689
lradius 62.464
lwrist 32.3044
lhand -14.8949 49.6097
lfingers 7.12502
lthumb 11.2661 79.2872
rfemur -6.68072 0.546753 27.3937
rtibia 43.2574
rfoot -7.3106 -10.1835
rtoes -5.386
lfemur -28.384 -2.24061 -9.30586
ltibia 19.4715
lfoot -2.33708 6.94916
ltoes -4.94059
233
root 13.9952 17.6045 4.12027 133.551 -81.7888 -128.51
lowerback -2.77382 4.13449 5.82705
upperback -0.829462 5.24754 2.7818
thorax 0.959123 2.59506 -0.18744
lowerneck -18.1122 -4.93681 -7.3004
upperneck -0.071801 -5.81984 10.5746
head 3.40219 -2.48824 3.96911
rclavicle -1.40143e-014 -5.76476e-014
rhumerus -1.29214 36.8346 -93.97
rradius 60.6674
rwrist -9.76872
rhand -23.5688 -30.8369
rfingers 7.12502
rthumb 2.89383 -420.797
lclavicle -1.40143e-014 -5.76476e-014
lhumerus -14.9877 -17.7452 107.153
lradius 62.338
lwrist 33.4741
lhand -14.7472 50.3252
lfingers 7.12502
lthumb 11.4086 79.9948
rfemur -7.34189 0.427485 26.926
rtibia 44.7417
rfoot -6.36579 -10.3212
rtoes -5.09621
lfemur -28.04 -2.24761 -9.85252
ltibia 19.879
lfoot -2.25264 6.69611
ltoes -4.33516
234
root 13.834 17.6072 4.13817 135.148 -81.954 -130.166
lowerback -2.68812 3.99873 5.49316
upperback -0.754878 5.08532 2.72132
thorax 0.957197 2.51742 -0.0781334
lowerneck -18.185 -4.82036 -7.23384
upperneck -0.124895 -5.67437 10.5561
head 3.38165 -2.41783 3.96574
rclavicle -4.01918e-014 -1.66979e-014
rhumerus -3.43549 38.0493 -95.0167
rradius 60.8113
rwrist -8.13021
rhand -24.222 -31.257
rfingers 7.12502
rthumb 2.26298 -421.225
lclavicle -4.01918e-014 -1.66979e-014
lhumerus -16.1152 -17.6218 107.612
lradius 62.1976
lwrist 34.5935
lhand -14.5794 50.9945
lfingers 7.12502
lthumb 11.5704 80.6551
rfemur -8.04524 0.300421 26.4647
rtibia 46.2185
rfoot -5.41811 -10.4728
rtoes -4.72819
lfemur -27.6769 -2.2638 -10.4003
ltibia 20.2704
lfoot -2.19456 6.44476
ltoes -3.74111
235
root 13.6739 17.6111 4.15602 136.718 -82.125 -131.796
lowerback -2.59682 3.85818 5.15889
upperback -0.681227 4.9165 2.66253
thorax 0.952073 2.43609 0.0331757
lowerneck -18.2494 -4.70287 -7.1669
upperneck -0.187853 -5.52772 10.5375
head 3.35681 -2.34733 3.9625
rclavicle 3.88624e-014 -9.93923e-015
rhumerus -5.58103 39.1652 -96.1095
rradius 60.9151
rwrist -6.58107
rhand -24.795 -31.6793
rfingers 7.12502
rthumb 1.70959 -421.652
lclavicle 3.88624e-014 -9.93923e-015
lhumerus -17.2168 -17.5152 108.065
lradius 62.0437
lwrist 35.6598
lhand -14.3928 51.614
lfingers 7.12502
lthumb 11.7503 81.2644
rfemur -8.78832 0.163433 26.0104
rtibia 47.6786
rfoot -4.4804 -10.6356
rtoes -4.28604
lfemur -27.295 -2.2926 -10.9481
ltibia 20.6387
lfoot -2.16464 6.19731
ltoes -3.16301
236
root 13.5148 17.616 4.17367 138.267 -82.3007 -133.404
lowerback -2.5026 3.71369 4.82499
upperback -0.608584 4.74192 2.6054
thorax 0.94538 2.35155 0.146357
lowerneck -18.3047 -4.58504 -7.09884
upperneck -0.258572 -5.38107 10.5188
head 3.32831 -2.27728 3.95909
rclavicle 4.84538e-015 3.57812e-015
rhumerus -7.71973 40.175 -97.2363
rradius 60.9818
rwrist -5.12138
rhand -25.2781 -32.0773
rfingers 7.12502
rthumb 1.24301 -422.053
lclavicle 4.84538e-015 3.57812e-015
lhumerus -18.2911 -17.4271 108.511
lradius 61.8797
lwrist 36.6729
lhand -14.188 52.1964
lfingers 7.12502
lthumb 11.9478 81.8354
rfemur -9.56955 0.0184677 25.5657
rtibia 49.114
rfoot -3.56796 -10.8076
rtoes -3.79082
lfemur -26.8941 -2.3321 -11.4934
ltibia 20.9778
lfoot -2.16535 5.95492
ltoes -2.60061
237
root 13.3569 17.622 4.19112 139.792 -82.4816 -134.986
lowerback -2.40432 3.56546 4.49303
upperback -0.538383 4.56186 2.54993
thorax 0.935248 2.26389 0.260435
lowerneck -18.3465 -4.46649 -7.03076
upperneck -0.340489 -5.23377 10.5009
head 3.29447 -2.20749 3.95612
rclavicle -1.49461e-014 -1.51076e-014
rhumerus -9.84115 41.0771 -98.3828
rradius 61.0174
rwrist -3.75756
rhand -25.6676 -32.4389
rfingers 7.12502
rthumb 0.866793 -422.417
lclavicle -1.49461e-014 -1.51076e-014
lhumerus -19.3402 -17.3567 108.951
lradius 61.7099
lwrist 37.6309
lhand -13.9664 52.7418
lfingers 7.12502
lthumb 12.1615 82.3683
rfemur -10.3851 -0.135218 25.132
rtibia 50.5141
rfoot -2.68911 -10.9857
rtoes -3.24835
lfemur -26.475 -2.38331 -12.0348
ltibia 21.2851
lfoot -2.19825 5.71722
ltoes -2.05696
238
root 13.2002 17.6289 4.20835 141.309 -82.6658 -136.559
lowerback -2.30317 3.4137 4.16375
upperback -0.469196 4.37638 2.49679
thorax 0.923893 2.17321 0.375907
lowerneck -18.3825 -4.34728 -6.96408
upperneck -0.428167 -5.0855 10.4839
head 3.25808 -2.13752 3.95372
rclavicle -3.26007e-014 -2.22639e-014
rhumerus -11.9306 41.8721 -99.5329
rradius 61.0269
rwrist -2.49114
rhand -25.9795 -32.7417
rfingers 7.12502
rthumb 0.565535 -422.721
lclavicle -3.26007e-014 -2.22639e-014
lhumerus -20.3583 -17.3025 109.381
lradius 61.5368
lwrist 38.5327
lhand -13.7262 53.2209
lfingers 7.12502
lthumb 12.3931 82.8335
rfemur -11.2326 -0.294185 24.7103
rtibia 51.8712
rfoot -1.85764 -11.1687
rtoes -2.66252
lfemur -26.0372 -2.44462 -12.5708
ltibia 21.5565
lfoot -2.26242 5.48573
ltoes -1.53114
239
root 13.0449 17.6367 4.22523 142.819 -82.8539 -138.122
lowerback -2.20132 3.25886 3.83681
upperback -0.402151 4.186 2.44546
thorax 0.911488 2.07977 0.492539
lowerneck -18.407 -4.22757 -6.89514
upperneck -0.52272 -4.93722 10.4651
head 3.21788 -2.06808 3.95041
rclavicle 2.08227e-014 -1.98785e-014
rhumerus -13.9778 42.5612 -100.672
rradius 61.0169
rwrist -1.32434
rhand -26.2019 -32.9674
rfingers 7.12502
rthumb 0.350755 -422.947
lclavicle 2.08227e-014 -1.98785e-014
lhumerus -21.3454 -17.2677 109.803
lradius 61.3626
lwrist 39.377
lhand -13.4715 53.6477
lfingers 7.12502
lthumb 12.6387 83.2454
rfemur -12.1112 -0.458788 24.3019
rtibia 53.1789
rfoot -1.08261 -11.3553
rtoes -2.06514
lfemur -25.5839 -2.51441 -13.101
ltibia 21.7933
lfoot -2.35862 5.25961
ltoes -1.01697
